<?xml version="1.0" encoding="utf-8"?>
<!-- Generator: Adobe Illustrator 23.0.2, SVG Export Plug-In . SVG Version: 6.00 Build 0)  -->
<svg version="1.1" id="Layer_1" xmlns="http://www.w3.org/2000/svg" xmlns:xlink="http://www.w3.org/1999/xlink" x="0px" y="0px"
	 viewBox="0 0 915.79 260.72" style="enable-background:new 0 0 915.79 260.72;" xml:space="preserve">
<style type="text/css">
	.st0{fill:#FFC200;}
	.st1{fill:#41B720;}
</style>
<g>
	<path class="st0" d="M144.04,96.76c0.32-5.25,1.03-10.49,2.14-15.73c0-0.48,0.04-0.87,0.12-1.2c0.08-0.31,0-0.55-0.24-0.71
		c-0.24-0.16-0.48-0.25-0.72-0.25h-7.27c-2.7,0.16-4.45,0.16-5.25,0c-1.11,0-1.42-0.55-0.95-1.66c0-0.16,0.04-0.44,0.13-0.83
		c0.07-0.4,0.12-0.68,0.12-0.83c3.81-9.21,8.66-16.09,14.54-20.62c5.87-4.53,12.31-4.8,19.3-0.83c0.63,0.33,1.42,0.88,2.38,1.67
		c1.12,0.95,2.02,1.07,2.74,0.35c0.72-0.71,2.42-3.69,5.13-8.93c1.91-3.49,3.49-6.43,4.76-8.82c0.48-1.11,0.32-1.91-0.47-2.39
		c-0.95-0.63-2.35-1.62-4.17-2.98c-1.82-1.34-3.49-2.5-5-3.46c-1.52-0.95-2.99-1.82-4.41-2.61c-11.44-4.93-22.37-5.92-32.77-2.99
		c-10.41,2.94-19.58,8.74-27.52,17.4c-7.95,8.67-13.27,18.71-15.97,30.15c-0.95,4.46-2.34,11.52-4.17,21.22
		c-1.83,9.69-2.9,15.41-3.22,17.15c-0.15,1.91,0.32,3.19,1.43,3.81l-1.2,1.2c-1.11,0.95-1.66,1.51-1.66,1.67v0.47
		c-4.77,25.42-8.26,43.38-10.49,53.86c-2.22,10.49-4.08,17.8-5.6,21.92c-1.51,4.13-3.61,7.87-6.32,11.2
		c-2.86,3.49-6.39,6.16-10.6,7.99c-4.21,1.82-8.47,1.79-12.75-0.12c-0.8-0.32-1.52-0.64-2.15-0.95c-0.64-0.32-1.15-0.6-1.54-0.83
		c-0.4-0.24-0.8-0.48-1.2-0.72c-0.39-0.24-0.72-0.44-0.95-0.6c-0.24-0.15-0.47-0.32-0.72-0.47c-0.24-0.16-0.39-0.24-0.47-0.24
		c-0.08,0-0.2,0.04-0.36,0.12c-0.15,0.07-0.27,0.2-0.35,0.35c-0.08,0.15-0.2,0.4-0.35,0.72c-1.59,3.01-3.49,6.43-5.73,10.25
		c-2.38,3.97-3.65,6.43-3.81,7.39c-0.15,0.95,0.56,2.07,2.15,3.34c12.07,8.42,23.59,12.43,34.55,12.03
		c10.96-0.4,20.78-4.13,29.44-11.2c8.66-7.07,15.68-16.56,21.09-28.48c1.74-4.29,3.37-10.05,4.88-17.28
		c1.51-7.23,6.71-34.28,15.61-81.15c0-0.32,0.04-0.6,0.12-0.83c0.08-0.24,0.2-0.44,0.36-0.6l0.35-0.35c0.08-0.08,0.27-0.15,0.6-0.24
		c0.32-0.08,0.59-0.12,0.83-0.12h9.17c3.01,0,4.8-0.2,5.36-0.6C143.52,101.01,143.88,99.46,144.04,96.76z"/>
	<path class="st0" d="M237.22,72.45c-5.09-0.32-10.01,0.4-14.78,2.15c-4.76,1.75-9.14,3.89-13.1,6.43
		c-3.97,2.54-6.43,3.97-7.39,4.28l-0.24-1.19c0.32-1.42,0.72-3.25,1.19-5.48c0.64-2.7,0.87-4.41,0.72-5.12
		c-0.16-0.72-0.95-1.08-2.39-1.08h-36.46c-1.75,0-2.78,0.12-3.09,0.36c-0.32,0.24-0.56,1.23-0.72,2.98
		c-0.32,2.39-1.27,7.9-2.86,16.56c-1.59,8.67-3.42,18.35-5.48,29.08c-2.07,10.73-4.13,21.33-6.2,31.82
		c-2.06,10.48-3.81,19.22-5.25,26.21c-1.42,7-2.14,10.57-2.14,10.73c-0.15,1.12-0.07,1.75,0.24,1.91c0.64,0.15,13.5,0.25,38.61,0.25
		c0.79,0,1.34-0.05,1.66-0.13c0.32-0.08,0.64-0.15,0.95-0.24c0.32-0.08,0.56-0.28,0.72-0.6c0.16-0.31,0.28-0.67,0.36-1.07
		c0.07-0.39,0.15-0.99,0.24-1.79c0.08-0.79,0.2-1.62,0.35-2.5c0.16-0.87,0.32-2.11,0.48-3.7c0.15-1.58,0.39-3.18,0.72-4.76
		c0.63-3.49,1.51-8.26,2.62-14.29c3.65-21.14,6.15-33.76,7.5-37.9c1.34-4.13,4.17-8.26,8.46-12.39c0.48-0.48,0.79-0.8,0.95-0.95
		c6.83-6.52,13.67-8.82,20.49-6.91c0.16,0,0.8,0.16,1.91,0.48c1.11,0.32,1.86,0.52,2.26,0.59c0.4,0.08,0.99,0.28,1.79,0.6
		c0.79,0.32,1.43,0.72,1.91,1.19c0.48,0.48,0.95,0.95,1.43,1.43c0.79,0.8,1.54,1.03,2.26,0.72c0.72-0.32,2.58-1.75,5.6-4.29
		c1.91-1.75,3.58-3.18,5.01-4.29c1.42-1.27,3.33-2.94,5.72-5c3.97-3.34,6.35-5.4,7.15-6.2c0.79-0.79,1.03-1.51,0.72-2.14
		C255.32,78.33,248.02,73.09,237.22,72.45z"/>
	<path class="st0" d="M370.91,72.21c-9.69,0.16-18.68,0.24-26.93,0.24c-0.95,0-1.54,0.21-1.79,0.6c-0.24,0.4-0.52,1.63-0.83,3.69
		c-0.32,2.54-0.64,4.76-0.95,6.67c-1.75,9.06-3.73,19.63-5.95,31.7c-2.23,12.87-3.69,20.54-4.41,23c-0.72,2.47-2.02,4.65-3.93,6.55
		c-1.6,1.75-3.02,3.42-4.29,5.01c-3.18,4.13-7.23,7.39-12.15,9.76c-3.34,1.6-5.96,0.64-7.87-2.86c-0.64-1.11-1.12-2.41-1.42-3.93
		c-0.33-1.51-0.52-2.89-0.6-4.17c-0.08-1.26-0.08-2.73,0-4.4c0.08-1.67,0.2-2.99,0.35-3.94c0.15-0.95,0.36-2.22,0.6-3.81
		c0.24-1.59,0.35-2.46,0.35-2.62c0.32-2.22,0.64-4.76,0.95-7.62c0.48-5.08,2.94-17.63,7.39-37.65c1.12-5.4,2.07-9.69,2.87-12.87
		c0.31-1.59,0.35-2.5,0.12-2.74c-0.25-0.24-1.15-0.36-2.74-0.36c-5.25,0-11.68-0.07-19.3-0.24c-9.86,0-15.7,0.08-17.52,0.24
		c-1.82,0.16-2.82,0.64-2.98,1.43c-0.64,3.49-1.27,7.19-1.91,11.08c-0.64,3.89-1.23,7.67-1.79,11.32
		c-0.55,3.66-1.07,7.35-1.55,11.09c-0.47,3.73-0.92,7.26-1.31,10.6c-0.4,3.34-0.75,6.52-1.07,9.54c-0.32,3.01-0.6,5.72-0.83,8.09
		c-0.24,2.39-0.44,4.49-0.6,6.32c-0.15,1.83-0.32,3.69-0.47,5.6c-0.64,7-0.64,13.7,0,20.14c0.63,6.44,2.86,12.01,6.67,16.69
		c3.81,4.68,8.89,7.27,15.25,7.74c4.6,0.48,9.21,0.12,13.82-1.07c4.6-1.19,8.26-2.5,10.96-3.93c2.7-1.43,6.52-3.66,11.43-6.68
		c1.27-0.79,2.22-1.42,2.86-1.91c-0.79,6.36-1.27,9.86-1.42,10.49c-0.32,1.59-0.24,2.54,0.24,2.86c0.64,0.32,12.63,0.48,35.99,0.48
		h2.14c1.74,0.15,2.94-0.53,3.58-2.03c0.64-1.51,1.74-6.94,3.33-16.33c4.93-30.18,11.21-63.31,18.83-99.37l0.24-0.48
		c0.16-0.47,0.16-0.79,0-0.95C384.25,72.53,379.8,72.21,370.91,72.21z"/>
	<path class="st0" d="M410.35,54.46c4.36,4.21,9.33,6.23,14.89,6.07c6.67,0,11.92-2.14,15.73-6.43c3.81-4.28,5.73-9.06,5.73-14.29
		c0-5.25-1.87-10.09-5.61-14.54c-3.73-4.45-8.86-6.75-15.36-6.92c-6.04,0-11.21,2.19-15.49,6.55c-4.29,4.37-6.2,9.26-5.73,14.66
		C404.03,45.29,405.97,50.25,410.35,54.46z"/>
	<g>
		<path class="st1" d="M747.67,72.45c-5.09-0.32-10.01,0.4-14.78,2.15c-4.76,1.75-9.14,3.89-13.1,6.43
			c-3.97,2.54-6.43,3.97-7.39,4.28l-0.24-1.19c0.32-1.42,0.71-3.25,1.19-5.48c0.64-2.7,0.87-4.41,0.72-5.12
			c-0.16-0.72-0.95-1.08-2.39-1.08h-36.46c-1.75,0-2.78,0.12-3.09,0.36c-0.32,0.24-0.56,1.23-0.72,2.98
			c-0.32,2.39-1.27,7.9-2.86,16.56c-1.59,8.67-3.42,18.35-5.48,29.08c-2.07,10.73-4.13,21.33-6.2,31.82
			c-2.06,10.48-3.81,19.22-5.24,26.21c-1.43,7-2.15,10.57-2.15,10.73c-0.15,1.12-0.07,1.75,0.24,1.91
			c0.64,0.15,13.5,0.25,38.61,0.25c0.79,0,1.34-0.05,1.66-0.13c0.32-0.08,0.64-0.15,0.96-0.24c0.31-0.08,0.55-0.28,0.71-0.6
			c0.16-0.31,0.28-0.67,0.36-1.07c0.07-0.39,0.15-0.99,0.24-1.79c0.08-0.79,0.2-1.62,0.35-2.5c0.16-0.87,0.32-2.11,0.48-3.7
			c0.15-1.58,0.39-3.18,0.72-4.76c0.63-3.49,1.51-8.26,2.62-14.29c3.65-21.14,6.15-33.76,7.5-37.9c1.34-4.13,4.17-8.26,8.46-12.39
			c0.47-0.48,0.79-0.8,0.95-0.95c6.83-6.52,13.66-8.82,20.49-6.91c0.16,0,0.8,0.16,1.91,0.48c1.11,0.32,1.86,0.52,2.26,0.59
			c0.4,0.08,0.99,0.28,1.79,0.6c0.79,0.32,1.43,0.72,1.91,1.19c0.48,0.48,0.95,0.95,1.43,1.43c0.79,0.8,1.54,1.03,2.26,0.72
			c0.72-0.32,2.58-1.75,5.6-4.29c1.91-1.75,3.58-3.18,5.01-4.29c1.42-1.27,3.33-2.94,5.72-5c3.97-3.34,6.35-5.4,7.15-6.2
			c0.79-0.79,1.03-1.51,0.72-2.14C765.78,78.33,758.47,73.09,747.67,72.45z"/>
		<path class="st1" d="M897.21,73.05c-0.24-0.39-0.48-0.64-0.72-0.72c-0.24-0.07-0.68-0.04-1.31,0.12h-0.48
			c-7.31,0-15.49-0.07-24.55-0.24c-9.37,0-14.29,0.24-14.77,0.72h-0.24c-0.32,0.32-0.64,1.67-0.95,4.05
			c-2.07,13.03-5.48,31.93-10.25,56.72c-0.8,3.5-1.6,6.12-2.39,7.87c-0.8,1.75-1.91,3.26-3.34,4.53c-1.42,1.27-2.38,2.22-2.86,2.86
			c-2.86,3.97-7.07,7.39-12.63,10.25c-2.7,1.43-4.92,1.23-6.67-0.59c-1.75-1.82-2.7-4.49-2.86-7.99
			c-0.16-9.37,0.32-16.84,1.43-22.41c0.31-1.42,0.59-3.18,0.83-5.24c0.25-2.07,0.52-4.09,0.83-6.08c0.32-1.99,0.68-3.78,1.08-5.36
			c0.39-1.59,0.71-3.18,0.95-4.76c0.24-1.59,0.39-2.89,0.47-3.93c0.08-1.03,0.2-1.91,0.35-2.62c0.16-0.72,0.32-1.15,0.48-1.32
			c0.32-0.32,0.6-0.87,0.84-1.67c0.24-0.79,0.75-3.18,1.55-7.14c1.11-5.56,2.22-10.56,3.33-15.02c0.32-1.27,0.32-2.06,0-2.38
			c-0.47-0.16-8.97-0.24-25.5-0.24h-5.95c-4.61-0.15-7.55-0.15-8.82,0c-1.27,0.16-1.99,0.56-2.14,1.2
			c-0.95,4.45-1.87,9.26-2.74,14.41c-0.88,5.17-1.63,10.05-2.27,14.66c-0.64,4.61-1.23,9.14-1.79,13.58
			c-0.55,4.46-0.99,8.5-1.31,12.16c-0.32,3.66-0.6,6.87-0.83,9.65c-0.24,2.79-0.4,5.05-0.47,6.8c-0.08,1.74-0.13,2.7-0.13,2.86
			c-1.74,10.8-1.03,20.49,2.15,29.07c2.22,5.73,5.83,9.89,10.84,12.51c5,2.62,10.36,3.66,16.08,3.1c5.72-0.56,11.28-2.27,16.68-5.13
			c1.59-0.79,3.22-1.71,4.89-2.74c1.67-1.03,3.01-1.87,4.05-2.5c1.03-0.64,2.11-1.27,3.22-1.91c1.11-0.64,2.06-1.03,2.86-1.19
			c0.32,2.7-0.52,6.67-2.5,11.92c-1.99,5.25-4.49,9.77-7.5,13.58c-3.02,3.49-6.52,6.07-10.49,7.74c-3.97,1.67-8.18,1.55-12.62-0.35
			c-1.12-0.48-2.19-1-3.22-1.55c-1.03-0.55-1.75-0.99-2.14-1.31c-0.4-0.33-0.8-0.56-1.19-0.72c-0.4-0.16-0.68-0.2-0.83-0.12
			c-0.16,0.07-0.4,0.35-0.72,0.83c-0.64,1.27-1.32,2.54-2.02,3.81c-0.72,1.27-1.28,2.26-1.67,2.98c-0.4,0.72-0.92,1.62-1.55,2.74
			c-2.7,4.76-4.13,7.67-4.29,8.7c-0.15,1.03,0.56,2.11,2.15,3.21h0.24c10.16,6.68,18.9,10.49,26.22,11.44
			c11.75,1.59,22.43-0.76,32.05-7.03c9.61-6.28,17.51-15.14,23.71-26.57c4.28-7.95,7.7-19.78,10.25-35.51
			c0.64-3.65,2.54-13.66,5.72-30.03c3.18-16.36,6.15-31.69,8.94-45.99c2.78-14.3,4.25-21.61,4.41-21.92
			C897.41,74.04,897.44,73.45,897.21,73.05z"/>
	</g>
	<path class="st0" d="M533.62,165.72c-3.63,4.58-7.56,8.61-11.79,12.09c-4.94,4.08-10.29,7.41-16.04,9.98
		c-13.82,6.35-25.34,6.44-34.56,0.25c-6.08-4.11-9.85-10.37-11.3-18.78c-1.23,1.32-2.5,2.61-3.83,3.88
		c-6.91,6.6-13.98,11.56-21.21,14.9c-7.23,3.33-14.3,4.85-21.22,4.53c-6.91-0.33-12.43-2.78-16.56-7.39
		c-4.13-4.61-6.43-9.86-6.91-15.74c-0.48-4.92-0.76-9.65-0.83-14.17c-0.08-4.53-0.05-7.7,0.12-9.53c0.15-1.83,0.52-4.96,1.07-9.42
		c0.55-4.45,0.83-6.91,0.83-7.39c0.95-8.73,1.91-16.52,2.86-23.35c0.95-6.83,1.71-11.88,2.27-15.14c0.55-3.26,1.07-5.95,1.54-8.1
		c0.48-2.14,0.8-3.73,0.95-4.76c0.16-1.03,0.25-1.94,0.25-2.74c0-1.11,0.24-1.82,0.71-2.14c0.48-0.32,1.27-0.4,2.39-0.24
		c9.21,0,18.75-0.07,28.59-0.24c7.31,0,11.04,0.32,11.21,0.95c0,0.16-0.08,0.56-0.25,1.19v0.48c-7.62,33.2-11.67,55.45-12.15,66.73
		c-0.8,15.73,2.54,21.53,10.01,17.4c0.79-0.48,1.47-0.87,2.02-1.19c0.55-0.32,1.15-0.72,1.79-1.2c0.64-0.47,1.11-0.83,1.43-1.07
		c0.32-0.24,0.83-0.67,1.54-1.31c0.72-0.64,1.23-1.12,1.55-1.43c0.32-0.32,0.95-1.03,1.91-2.14c0.95-1.11,1.67-1.91,2.15-2.39
		c0.47-0.47,1.39-1.51,2.74-3.09c1.34-1.59,2.41-2.86,3.21-3.81c0.15-0.16,0.32-0.32,0.48-0.48c0.15-0.15,0.35-0.27,0.59-0.35
		c0.25-0.08,0.48-0.08,0.72,0s0.48,0.15,0.72,0.24c0.06,0.03,0.14,0.05,0.22,0.09c0.14-1.75,0.3-3.68,0.5-5.81
		c0.24-2.62,0.51-5.6,0.83-8.94c0.32-3.34,0.68-6.75,1.08-10.25c0.39-3.49,0.87-7.27,1.42-11.33c0.55-4.05,1.15-7.9,1.79-11.55
		c1.43-9.06,2.78-17.31,4.06-24.78c1.27-7.47,2.3-13.55,3.09-18.23c0.79-4.68,1.55-8.82,2.26-12.4c0.72-3.58,1.23-6.23,1.55-7.99
		c0.32-1.74,0.6-3.21,0.83-4.4c0.24-1.2,0.44-1.99,0.6-2.39c0.15-0.4,0.24-0.75,0.24-1.07v-1.2c0.15-1.26,1.03-1.91,2.62-1.91
		c7.78,0,16.44-0.07,25.97-0.24c9.21,0,13.9,0.32,14.07,0.95c0.15,0.32,0.15,0.8,0,1.43l-0.24,0.47c-0.47,2.07-1.99,9.37-4.53,21.92
		c-0.32,1.59,0.4,2.39,2.15,2.39h9.76c1.43-0.15,1.99,0.55,1.67,2.14c-0.32,2.7-0.79,6.04-1.42,10.01c-0.8,5.25-1.4,8.42-1.79,9.54
		c-0.4,1.11-1.32,1.59-2.74,1.42c-8.42-0.64-12.68-0.72-12.75-0.24c-0.08,0.47-0.52,2.66-1.32,6.55c-0.79,3.89-1.47,7.15-2.02,9.77
		c-0.55,2.62-1.31,6.35-2.26,11.2c-0.95,4.85-1.72,9.14-2.27,12.87c-0.55,3.74-1.19,7.99-1.91,12.75
		c-0.72,4.76-1.15,8.97-1.31,12.63c-0.16,3.66-0.28,7.19-0.36,10.6c-0.08,3.42,0.16,6.32,0.72,8.7c0.55,2.39,1.32,4.13,2.27,5.25
		c1.42,1.75,3.09,2.06,5,0.95c0.79-0.32,1.62-0.68,2.5-1.07c0.87-0.4,1.55-0.72,2.02-0.95c0.48-0.24,1.15-0.68,2.02-1.32
		c0.87-0.64,1.82-1.47,2.86-2.5c0.74-0.74,1.65-1.68,2.72-2.83c0.42-0.45,0.86-0.93,1.33-1.45c1.67-1.82,3.61-4.09,5.84-6.8
		c0.8-0.79,1.35-1.34,1.67-1.67c0.01,3.02,0.16,6.12,0.47,9.3C530.34,155.9,531.6,161.01,533.62,165.72z"/>
	<path class="st1" d="M643.41,100.22c-1.01-3.62-2.5-6.93-4.5-9.92c-3.8-5.73-9.41-10.28-16.82-13.68
		c-11.28-5.16-25.58-5.84-42.9-2.02c-15.73,3.33-28.36,11.88-37.89,25.62c-3.19,4.61-5.75,9.55-7.66,14.83
		c-2.87,7.92-4.29,16.6-4.26,26.04c0.01,3.02,0.16,6.12,0.47,9.3c0.49,5.52,1.74,10.63,3.77,15.34c0.01,0.01,0.01,0.03,0.02,0.04
		c1.86,4.36,4.37,8.36,7.54,12.03c6.59,7.62,14.93,12.55,25.02,14.77c10.09,2.22,21.49,1.19,34.19-3.1
		c11.76-4.28,21.72-11.72,29.91-22.28c3.43-4.43,6.3-8.97,8.6-13.61c3.19-6.42,5.28-13.05,6.3-19.87
		C646.95,121.94,646.35,110.78,643.41,100.22z M538.91,151.33c-0.15,0-0.24-0.08-0.24-0.25h0.24V151.33z M606.24,130.24
		c-0.72,5.32-2.27,10.53-4.65,15.61c-2.39,5.08-5.33,9.21-8.82,12.39c-3.66,3.02-7.47,4.21-11.43,3.58c-3.97-0.64-6.83-2.7-8.58-6.2
		c-2.06-4.13-3.21-8.73-3.46-13.82c-0.24-5.08,0.13-9.68,1.08-13.82c0.95-4.13,2.22-7.78,3.81-10.96c2.22-3.97,5.04-6.82,8.46-8.58
		c3.41-1.75,6.67-2.42,9.77-2.03c3.09,0.4,5.87,1.4,8.34,2.99c2.46,1.59,4.01,3.41,4.65,5.48
		C606.67,119.8,606.95,124.92,606.24,130.24z"/>
	<path d="M538.91,151.09v0.25c-0.15,0-0.24-0.08-0.24-0.25H538.91z"/>
</g>
</svg>
